PathFileType	4	(X/Y/Z)	C:\Users\dbl\Desktop\20210112\20210112\bx_n_5_901.trc
DataRate	CameraRate	NumFrames	NumMarkers	Units	OrigDataRate	OrigDataStartFrame	OrigNumFrames
50.00	50.00	       4	43	mm	50.00	353	       470
Frame#	Time	Top.Head			R.Acromium			L.Acromium			Sternum			R.ASIS			L.ASIS			V.Sacral			R.Thigh.Upper			R.Thigh.Front			R.Thigh.Rear			R.Knee.Lat			R.Knee.Med			R.Shank.Upper			R.Shank.Front			R.Shank.Rear			R.Ankle.Lat			R.Midfoot.Lat			R.Toe.Lat			R.Toe.Tip			R.Toe.Med			R.Ankle.Med			R.Midfoot.Sup			R.Heel			L.Thigh.Upper			L.Thigh.Front			L.Thigh.Rear			L.Knee.Lat			L.Knee.Med			L.Shank.Upper			L.Shank.Front			L.Shank.Rear			L.Ankle.Lat			L.Midfoot.Lat			L.Toe.Lat			L.Toe.Tip			L.Toe.Med			L.Ankle.Med			L.Midfoot.Sup			L.Heel			origin1 front left			origin2 front right			origin 3 back right			origin 4 back leftt			
		X1	Y1	Z1	X2	Y2	Z2	X3	Y3	Z3	X4	Y4	Z4	X5	Y5	Z5	X6	Y6	Z6	X7	Y7	Z7	X8	Y8	Z8	X9	Y9	Z9	X10	Y10	Z10	X11	Y11	Z11	X12	Y12	Z12	X13	Y13	Z13	X14	Y14	Z14	X15	Y15	Z15	X16	Y16	Z16	X17	Y17	Z17	X18	Y18	Z18	X19	Y19	Z19	X20	Y20	Z20	X21	Y21	Z21	X22	Y22	Z22	X23	Y23	Z23	X24	Y24	Z24	X25	Y25	Z25	X26	Y26	Z26	X27	Y27	Z27	X28	Y28	Z28	X29	Y29	Z29	X30	Y30	Z30	X31	Y31	Z31	X32	Y32	Z32	X33	Y33	Z33	X34	Y34	Z34	X35	Y35	Z35	X36	Y36	Z36	X37	Y37	Z37	X38	Y38	Z38	X39	Y39	Z39	X40	Y40	Z40	X41	Y41	Z41	X42	Y42	Z42	X43	Y43	Z43	

353	7.040	-106.55945	121.07384	1094.49011	-325.58875	-35.50522	950.94659	-354.57175	261.19559	975.77820	-493.23581	97.78575	936.85547	-802.31354	-18.12888	955.60638	-786.09686	230.12662	976.39368	-933.00842	86.57366	1099.43030	-862.75958	-77.76016	855.92096	-777.59998	-5.49068	798.23724	-855.71039	-72.08890	740.99091	-836.97968	-41.84549	603.85107	-820.40137	68.13282	560.29352	-832.99133	-39.76104	555.21747	-773.54956	12.53306	523.00385	-849.53302	-54.82666	467.33783	-763.77777	-25.58623	201.91963	-646.82416	-65.91740	162.36844	-605.21039	-71.66142	156.89348	-549.72180	-20.38896	163.05003	-601.05872	30.67075	165.80298	-730.65295	64.31860	219.72064	-675.83826	52.11928	162.93324	-796.17407	33.11413	172.03972	-891.44067	286.38065	860.54120	-779.41315	218.01633	786.45264	-864.02222	281.49908	724.60480	-864.08447	255.01468	620.88605	-814.99255	144.58115	564.93372	-847.07739	250.43402	558.40881	-784.59338	206.81583	534.34998	-864.38556	263.53000	478.86862	-774.01129	231.63985	201.23396	-659.32263	296.41678	157.67682	-623.00720	304.99930	158.47304	-557.58545	251.85883	163.98801	-594.36591	216.54784	173.57884	-723.64252	158.59079	222.77716	-677.50452	174.37990	163.37628	-799.91577	184.01740	179.59470	-528.28558	303.82266	146.28014	-518.46661	-72.72741	143.54192	-875.97083	-78.43095	140.97826	-882.72412	295.91968	144.57784	
354	7.060	-107.45477	121.06335	1102.81250	-325.78143	-35.89399	957.40814	-354.57816	261.75519	980.17780	-493.10623	97.96242	940.11926	-801.46185	-17.95979	956.41272	-786.21198	229.96187	977.15546	-933.69666	86.38493	1099.19543	-862.79651	-77.79774	855.93475	-777.82129	-5.40487	797.98462	-855.82123	-72.27959	740.89661	-837.28760	-42.14892	603.67877	-820.88892	67.88699	560.10590	-833.29633	-40.04206	555.09741	-773.85950	12.29315	522.89124	-849.75403	-55.19813	467.29315	-763.81793	-25.72558	201.86002	-646.85272	-66.00017	162.32507	-605.22809	-71.68021	156.88303	-549.80774	-20.41252	163.09381	-601.09814	30.61534	165.82713	-730.71454	64.25358	219.81229	-675.81140	52.08462	162.95302	-796.14728	33.05243	171.96077	-891.67975	285.77386	860.57275	-779.67633	217.84604	786.33240	-864.38916	281.30188	724.61700	-864.44647	254.87808	620.84521	-815.35382	144.49814	564.82013	-847.43225	250.38594	558.33014	-784.91107	206.87379	534.26196	-864.74689	263.53381	478.74741	-774.11908	231.58733	201.13503	-659.35394	296.48325	157.67366	-623.00592	305.05145	158.42004	-557.59540	251.88152	164.00772	-594.39594	216.62689	173.59358	-723.65381	158.60475	222.76031	-677.49353	174.36861	163.42020	-799.94263	184.00095	179.58847	-528.27216	303.83426	146.29619	-518.46375	-72.65605	143.47453	-875.97461	-78.43686	140.97983	-882.64648	295.99438	144.62840	
355	7.080	-108.52985	121.16261	1111.83154	-326.10519	-36.34439	964.40131	-354.71698	262.31448	985.10614	-493.01868	98.13569	943.63483	-800.52466	-17.76883	957.29358	-786.27502	229.77873	977.98499	-934.41541	86.17059	1098.96497	-862.77582	-77.80462	855.89459	-778.04205	-5.31950	797.71448	-855.93048	-72.45686	740.79578	-837.59003	-42.44906	603.48657	-821.33044	67.60853	559.91412	-833.57159	-40.32011	554.97778	-774.17084	12.06450	522.78656	-849.95715	-55.57710	467.25317	-763.83777	-25.85338	201.80185	-646.88928	-66.07312	162.27861	-605.23523	-71.69887	156.87613	-549.88312	-20.43460	163.12781	-601.13342	30.56877	165.86491	-730.80988	64.19092	219.88985	-675.78680	52.06320	162.97150	-796.09052	32.99404	171.86415	-891.86902	285.17148	860.62067	-779.90344	217.59486	786.16431	-864.74109	281.04318	724.64722	-864.81244	254.71280	620.83826	-815.68579	144.39983	564.67596	-847.83386	250.33395	558.30249	-785.21991	206.89034	534.15735	-865.12433	263.46609	478.62115	-774.22449	231.51392	201.03851	-659.39233	296.56308	157.67047	-623.01801	305.09708	158.36938	-557.61212	251.91388	164.04344	-594.42847	216.70158	173.59262	-723.66327	158.61151	222.74757	-677.48566	174.36989	163.43517	-799.97345	183.96320	179.60687	-528.25507	303.86392	146.32454	-518.44604	-72.58758	143.40656	-875.97925	-78.44510	140.98079	-882.58002	296.06439	144.67261	
356	7.100	-109.76001	121.34787	1121.47705	-326.56525	-36.85749	971.92865	-355.03946	262.84674	990.64758	-492.97412	98.30518	947.40320	-799.49963	-17.55577	958.24994	-786.27863	229.58630	978.88409	-935.16675	85.92928	1098.75793	-862.69556	-77.79103	855.82471	-778.22363	-5.26581	797.46094	-856.00854	-72.62426	740.69537	-837.85925	-42.73233	603.29620	-821.69965	67.31281	559.73596	-833.80695	-40.60025	554.87512	-774.46588	11.84855	522.68768	-850.12128	-55.94328	467.20190	-763.84924	-25.95993	201.75076	-646.92664	-66.13261	162.23294	-605.23108	-71.71869	156.86964	-549.94135	-20.45285	163.14899	-601.15686	30.53108	165.91374	-730.92993	64.12884	219.95213	-675.76489	52.05368	162.98935	-796.01691	32.94630	171.76910	-891.98041	284.57953	860.68195	-780.05859	217.27632	785.97260	-865.03998	280.71671	724.69702	-865.15588	254.51756	620.85901	-815.96112	144.28880	564.52399	-848.25232	250.26781	558.33002	-785.51013	206.85745	534.04553	-865.49658	263.31763	478.48853	-774.31995	231.42012	200.95444	-659.43817	296.64481	157.66296	-623.04041	305.13535	158.32466	-557.63318	251.95151	164.08713	-594.46698	216.76665	173.57890	-723.66833	158.61143	222.73997	-677.48102	174.38298	163.43167	-800.01215	183.90141	179.64825	-528.23761	303.90436	146.35715	-518.41486	-72.53895	143.35112	-875.98431	-78.45345	140.98070	-882.53235	296.11893	144.70029	
